# xmcd
#
# Track frame offsets:
#	150
#	13396
#	32290
#	42887
#	60156
#	76131
#	92841
#	102586
#	117679
#	129967
#	151162
#	163979
#
# Disc length: 2338 seconds
# Revision: 0
# Processed by: cddbd v1.5.2PL0 Copyright (c) Steve Scherf et al.
# Submitted via: dBpowerAMP V12.0
#
DISCID=9009200c
DTITLE=Leigh Sloggett - More Than I Need
DYEAR=2012
DGENRE=Blues
TTITLE0=Feeling Good Today
TTITLE1=Dog Line
TTITLE2=Dancing With Joy
TTITLE3=Deep Dark Water
TTITLE4=More Than I Need
TTITLE5=Sweet Serene
TTITLE6=Pleased to Meet You
TTITLE7=I am a Lonesome Hobo 
TTITLE8=Setting Out
TTITLE9=The Sea
TTITLE10=No Room at The Top 
TTITLE11=I Can Fly
EXTD=
EXTT0=
EXTT1=
EXTT2=
EXTT3=
EXTT4=
EXTT5=
EXTT6=
EXTT7=
EXTT8=
EXTT9=
EXTT10=
EXTT11=
PLAYORDER=
